<svg width="203" height="56" viewBox="0 0 203 56" fill="none" xmlns="http://www.w3.org/2000/svg">
<path d="M59.67 17.15V38H56.25V17.15H59.67ZM72.8002 21.2C74.1002 21.2 75.2602 21.47 76.2802 22.01C77.3202 22.55 78.1302 23.35 78.7102 24.41C79.2902 25.47 79.5802 26.75 79.5802 28.25V38H76.1902V28.76C76.1902 27.28 75.8202 26.15 75.0802 25.37C74.3402 24.57 73.3302 24.17 72.0502 24.17C70.7702 24.17 69.7502 24.57 68.9902 25.37C68.2502 26.15 67.8802 27.28 67.8802 28.76V38H64.4602V21.47H67.8802V23.36C68.4402 22.68 69.1502 22.15 70.0102 21.77C70.8902 21.39 71.8202 21.2 72.8002 21.2ZM91.1726 24.26H88.1126V38H84.6626V24.26H82.7126V21.47H84.6626V20.3C84.6626 18.4 85.1626 17.02 86.1626 16.16C87.1826 15.28 88.7726 14.84 90.9326 14.84V17.69C89.8926 17.69 89.1626 17.89 88.7426 18.29C88.3226 18.67 88.1126 19.34 88.1126 20.3V21.47H91.1726V24.26ZM101.674 38.27C100.114 38.27 98.7035 37.92 97.4435 37.22C96.1835 36.5 95.1935 35.5 94.4735 34.22C93.7535 32.92 93.3935 31.42 93.3935 29.72C93.3935 28.04 93.7635 26.55 94.5035 25.25C95.2435 23.95 96.2535 22.95 97.5335 22.25C98.8135 21.55 100.244 21.2 101.824 21.2C103.404 21.2 104.834 21.55 106.114 22.25C107.394 22.95 108.404 23.95 109.144 25.25C109.884 26.55 110.254 28.04 110.254 29.72C110.254 31.4 109.874 32.89 109.114 34.19C108.354 35.49 107.314 36.5 105.994 37.22C104.694 37.92 103.254 38.27 101.674 38.27ZM101.674 35.3C102.554 35.3 103.374 35.09 104.134 34.67C104.914 34.25 105.544 33.62 106.024 32.78C106.504 31.94 106.744 30.92 106.744 29.72C106.744 28.52 106.514 27.51 106.054 26.69C105.594 25.85 104.984 25.22 104.224 24.8C103.464 24.38 102.644 24.17 101.764 24.17C100.884 24.17 100.064 24.38 99.3035 24.8C98.5635 25.22 97.9735 25.85 97.5335 26.69C97.0935 27.51 96.8735 28.52 96.8735 29.72C96.8735 31.5 97.3235 32.88 98.2235 33.86C99.1435 34.82 100.294 35.3 101.674 35.3ZM119.934 38.27C118.634 38.27 117.464 38.04 116.424 37.58C115.404 37.1 114.594 36.46 113.994 35.66C113.394 34.84 113.074 33.93 113.034 32.93H116.574C116.634 33.63 116.964 34.22 117.564 34.7C118.184 35.16 118.954 35.39 119.874 35.39C120.834 35.39 121.574 35.21 122.094 34.85C122.634 34.47 122.904 33.99 122.904 33.41C122.904 32.79 122.604 32.33 122.004 32.03C121.424 31.73 120.494 31.4 119.214 31.04C117.974 30.7 116.964 30.37 116.184 30.05C115.404 29.73 114.724 29.24 114.144 28.58C113.584 27.92 113.304 27.05 113.304 25.97C113.304 25.09 113.564 24.29 114.084 23.57C114.604 22.83 115.344 22.25 116.304 21.83C117.284 21.41 118.404 21.2 119.664 21.2C121.544 21.2 123.054 21.68 124.194 22.64C125.354 23.58 125.974 24.87 126.054 26.51H122.634C122.574 25.77 122.274 25.18 121.734 24.74C121.194 24.3 120.464 24.08 119.544 24.08C118.644 24.08 117.954 24.25 117.474 24.59C116.994 24.93 116.754 25.38 116.754 25.94C116.754 26.38 116.914 26.75 117.234 27.05C117.554 27.35 117.944 27.59 118.404 27.77C118.864 27.93 119.544 28.14 120.444 28.4C121.644 28.72 122.624 29.05 123.384 29.39C124.164 29.71 124.834 30.19 125.394 30.83C125.954 31.47 126.244 32.32 126.264 33.38C126.264 34.32 126.004 35.16 125.484 35.9C124.964 36.64 124.224 37.22 123.264 37.64C122.324 38.06 121.214 38.27 119.934 38.27ZM134.25 24.26V33.41C134.25 34.03 134.39 34.48 134.67 34.76C134.97 35.02 135.47 35.15 136.17 35.15H138.27V38H135.57C134.03 38 132.85 37.64 132.03 36.92C131.21 36.2 130.8 35.03 130.8 33.41V24.26H128.85V21.47H130.8V17.36H134.25V21.47H138.27V24.26H134.25ZM140.582 29.66C140.582 28 140.922 26.53 141.602 25.25C142.302 23.97 143.242 22.98 144.422 22.28C145.622 21.56 146.942 21.2 148.382 21.2C149.682 21.2 150.812 21.46 151.772 21.98C152.752 22.48 153.532 23.11 154.112 23.87V21.47H157.562V38H154.112V35.54C153.532 36.32 152.742 36.97 151.742 37.49C150.742 38.01 149.602 38.27 148.322 38.27C146.902 38.27 145.602 37.91 144.422 37.19C143.242 36.45 142.302 35.43 141.602 34.13C140.922 32.81 140.582 31.32 140.582 29.66ZM154.112 29.72C154.112 28.58 153.872 27.59 153.392 26.75C152.932 25.91 152.322 25.27 151.562 24.83C150.802 24.39 149.982 24.17 149.102 24.17C148.222 24.17 147.402 24.39 146.642 24.83C145.882 25.25 145.262 25.88 144.782 26.72C144.322 27.54 144.092 28.52 144.092 29.66C144.092 30.8 144.322 31.8 144.782 32.66C145.262 33.52 145.882 34.18 146.642 34.64C147.422 35.08 148.242 35.3 149.102 35.3C149.982 35.3 150.802 35.08 151.562 34.64C152.322 34.2 152.932 33.56 153.392 32.72C153.872 31.86 154.112 30.86 154.112 29.72ZM161.214 29.72C161.214 28.02 161.554 26.53 162.234 25.25C162.934 23.95 163.894 22.95 165.114 22.25C166.334 21.55 167.734 21.2 169.314 21.2C171.314 21.2 172.964 21.68 174.264 22.64C175.584 23.58 176.474 24.93 176.934 26.69H173.244C172.944 25.87 172.464 25.23 171.804 24.77C171.144 24.31 170.314 24.08 169.314 24.08C167.914 24.08 166.794 24.58 165.954 25.58C165.134 26.56 164.724 27.94 164.724 29.72C164.724 31.5 165.134 32.89 165.954 33.89C166.794 34.89 167.914 35.39 169.314 35.39C171.294 35.39 172.604 34.52 173.244 32.78H176.934C176.454 34.46 175.554 35.8 174.234 36.8C172.914 37.78 171.274 38.27 169.314 38.27C167.734 38.27 166.334 37.92 165.114 37.22C163.894 36.5 162.934 35.5 162.234 34.22C161.554 32.92 161.214 31.42 161.214 29.72ZM187.182 29.75L194.802 38H190.182L184.062 30.89V38H180.642V15.8H184.062V28.7L190.062 21.47H194.802L187.182 29.75Z" fill="#293042"/>
<rect x="10.6521" y="9.65234" width="34.6957" height="34.6957" rx="3.30435" fill="#4ABA73"/>
<path d="M39.3695 32.6319C39.7184 32.428 39.8358 31.9798 39.6318 31.6309C39.4278 31.2821 38.9797 31.1647 38.6308 31.3686L39.3695 32.6319ZM28.0972 38.3758L27.7278 37.7442L27.7278 37.7442L28.0972 38.3758ZM26.9413 38.3462L27.3425 37.7343L27.3425 37.7343L26.9413 38.3462ZM16.9014 30.8882C16.5635 30.6666 16.1099 30.7609 15.8883 31.0988C15.6667 31.4368 15.761 31.8904 16.099 32.112L16.9014 30.8882ZM38.6308 31.3686L27.7278 37.7442L28.4665 39.0075L39.3695 32.6319L38.6308 31.3686ZM27.3425 37.7343L16.9014 30.8882L16.099 32.112L26.5401 38.9581L27.3425 37.7343ZM27.7278 37.7442C27.6079 37.8143 27.4587 37.8105 27.3425 37.7343L26.5401 38.9581C27.1208 39.3389 27.8671 39.358 28.4665 39.0075L27.7278 37.7442Z" fill="white"/>
<path d="M39.3693 27.6317C39.7181 27.4277 39.8356 26.9795 39.6316 26.6307C39.4276 26.2819 38.9794 26.1644 38.6306 26.3684L39.3693 27.6317ZM28.0971 33.3759L28.4665 34.0076L28.4665 34.0076L28.0971 33.3759ZM26.9412 33.3463L26.54 33.9582L26.54 33.9582L26.9412 33.3463ZM16.9012 25.8884C16.5632 25.6668 16.1096 25.7611 15.8881 26.0991C15.6665 26.437 15.7608 26.8906 16.0988 27.1122L16.9012 25.8884ZM38.6306 26.3684L27.7277 32.7443L28.4665 34.0076L39.3693 27.6317L38.6306 26.3684ZM27.3424 32.7344L16.9012 25.8884L16.0988 27.1122L26.54 33.9582L27.3424 32.7344ZM27.7277 32.7443C27.6078 32.8144 27.4586 32.8106 27.3424 32.7344L26.54 33.9582C27.1207 34.339 27.867 34.3581 28.4665 34.0076L27.7277 32.7443Z" fill="white"/>
<path d="M38.8091 22.4664L27.7445 28.7228C27.624 28.7909 27.4753 28.7852 27.3604 28.7081L16.8935 21.6793C16.6672 21.5273 16.6806 21.1901 16.9183 21.0566L27.5194 15.0998C27.6352 15.0347 27.7772 15.0375 27.8904 15.1072L33.8723 18.7899L38.8208 21.8364C39.058 21.9824 39.0515 22.3293 38.8091 22.4664Z" fill="#4ABA73" stroke="white" stroke-width="1.46342"/>
</svg>
